<mxfile host="app.diagrams.net" agent="Mozilla/5.0 (Windows NT 10.0; Win64; x64) AppleWebKit/537.36 (KHTML, like Gecko) Chrome/129.0.0.0 Safari/537.36" version="24.7.17">
  <diagram name="Page-1" id="eS3_jRicad-8l0eE1En4">
    <mxGraphModel dx="794" dy="458" grid="1" gridSize="10" guides="1" tooltips="1" connect="1" arrows="1" fold="1" page="1" pageScale="1" pageWidth="850" pageHeight="1100" math="0" shadow="0">
      <root>
        <mxCell id="0" />
        <mxCell id="1" parent="0" />
        <mxCell id="mqfesZPvg2Y82zENwm4p-3" value="" style="shape=cube;whiteSpace=wrap;html=1;boundedLbl=1;backgroundOutline=1;darkOpacity=0.05;darkOpacity2=0.1;" vertex="1" parent="1">
          <mxGeometry x="360" y="400" width="270.63" height="130" as="geometry" />
        </mxCell>
        <mxCell id="mqfesZPvg2Y82zENwm4p-2" value="" style="shape=cube;whiteSpace=wrap;html=1;boundedLbl=1;backgroundOutline=1;darkOpacity=0.05;darkOpacity2=0.1;" vertex="1" parent="1">
          <mxGeometry x="349.38" y="180" width="281.25" height="131.25" as="geometry" />
        </mxCell>
        <mxCell id="T7wKtkU18GDrBWfgW94B-3" value=":Host Machine (Mister Ed)" style="text;html=1;align=center;verticalAlign=middle;whiteSpace=wrap;rounded=0;" parent="1" vertex="1">
          <mxGeometry x="417.5" y="201.25" width="145" height="30" as="geometry" />
        </mxCell>
        <mxCell id="T7wKtkU18GDrBWfgW94B-4" value="Patient Info DB" style="rounded=0;whiteSpace=wrap;html=1;" parent="1" vertex="1">
          <mxGeometry x="521.25" y="241.25" width="80" height="55" as="geometry" />
        </mxCell>
        <mxCell id="T7wKtkU18GDrBWfgW94B-5" value="Triage" style="rounded=0;whiteSpace=wrap;html=1;" parent="1" vertex="1">
          <mxGeometry x="380" y="245" width="75" height="47.5" as="geometry" />
        </mxCell>
        <mxCell id="T7wKtkU18GDrBWfgW94B-7" value=":Client Machine" style="text;html=1;align=center;verticalAlign=middle;whiteSpace=wrap;rounded=0;" parent="1" vertex="1">
          <mxGeometry x="465.32" y="430" width="60" height="30" as="geometry" />
        </mxCell>
        <mxCell id="T7wKtkU18GDrBWfgW94B-8" value="Sign up" style="rounded=0;whiteSpace=wrap;html=1;" parent="1" vertex="1">
          <mxGeometry x="538.75" y="470" width="62.5" height="40" as="geometry" />
        </mxCell>
        <mxCell id="T7wKtkU18GDrBWfgW94B-12" value="Triage Request" style="rounded=0;whiteSpace=wrap;html=1;" parent="1" vertex="1">
          <mxGeometry x="395" y="470" width="65" height="40" as="geometry" />
        </mxCell>
        <mxCell id="4IwMAzafzl5kL99uBkA9-2" value="&amp;lt;&amp;lt;JDBC&amp;gt;&amp;gt;" style="text;html=1;align=center;verticalAlign=middle;whiteSpace=wrap;rounded=0;rotation=0;" parent="1" vertex="1">
          <mxGeometry x="562.5" y="350" width="60" height="30" as="geometry" />
        </mxCell>
        <mxCell id="4IwMAzafzl5kL99uBkA9-7" value="" style="endArrow=classic;html=1;rounded=0;exitX=1;exitY=0.5;exitDx=0;exitDy=0;entryX=0;entryY=0.5;entryDx=0;entryDy=0;dashed=1;" parent="1" source="T7wKtkU18GDrBWfgW94B-5" target="T7wKtkU18GDrBWfgW94B-4" edge="1">
          <mxGeometry width="50" height="50" relative="1" as="geometry">
            <mxPoint x="450" y="271.25" as="sourcePoint" />
            <mxPoint x="500" y="221.25" as="targetPoint" />
          </mxGeometry>
        </mxCell>
        <mxCell id="4IwMAzafzl5kL99uBkA9-19" value="" style="endArrow=classic;html=1;rounded=0;entryX=0.751;entryY=0.99;entryDx=0;entryDy=0;entryPerimeter=0;exitX=0.744;exitY=0.01;exitDx=0;exitDy=0;exitPerimeter=0;" parent="1" edge="1" target="mqfesZPvg2Y82zENwm4p-2" source="mqfesZPvg2Y82zENwm4p-3">
          <mxGeometry width="50" height="50" relative="1" as="geometry">
            <mxPoint x="560" y="420" as="sourcePoint" />
            <mxPoint x="560" y="320" as="targetPoint" />
          </mxGeometry>
        </mxCell>
        <mxCell id="4IwMAzafzl5kL99uBkA9-21" value="Email" style="text;html=1;align=center;verticalAlign=middle;whiteSpace=wrap;rounded=0;" parent="1" vertex="1">
          <mxGeometry x="385" y="350" width="60" height="30" as="geometry" />
        </mxCell>
        <mxCell id="4IwMAzafzl5kL99uBkA9-22" value="" style="endArrow=classic;html=1;rounded=0;entryX=0.996;entryY=0.422;entryDx=0;entryDy=0;entryPerimeter=0;exitX=0;exitY=0;exitDx=0;exitDy=55.625;exitPerimeter=0;" parent="1" target="mqfesZPvg2Y82zENwm4p-1" edge="1" source="mqfesZPvg2Y82zENwm4p-2">
          <mxGeometry width="50" height="50" relative="1" as="geometry">
            <mxPoint x="340" y="260" as="sourcePoint" />
            <mxPoint x="220" y="268.75" as="targetPoint" />
          </mxGeometry>
        </mxCell>
        <mxCell id="4IwMAzafzl5kL99uBkA9-24" value="Email" style="text;html=1;align=center;verticalAlign=middle;whiteSpace=wrap;rounded=0;" parent="1" vertex="1">
          <mxGeometry x="240" y="205" width="60" height="30" as="geometry" />
        </mxCell>
        <mxCell id="mqfesZPvg2Y82zENwm4p-1" value=":Health Professional&amp;nbsp;&lt;div&gt;Machine&lt;/div&gt;&lt;div&gt;&lt;br&gt;&lt;/div&gt;&lt;div&gt;&lt;br&gt;&lt;/div&gt;&lt;div&gt;&lt;br&gt;&lt;/div&gt;&lt;div&gt;&lt;br&gt;&lt;/div&gt;" style="shape=cube;whiteSpace=wrap;html=1;boundedLbl=1;backgroundOutline=1;darkOpacity=0.05;darkOpacity2=0.1;" vertex="1" parent="1">
          <mxGeometry x="20" y="185.63" width="190" height="120" as="geometry" />
        </mxCell>
        <mxCell id="4IwMAzafzl5kL99uBkA9-25" value="" style="endArrow=classic;html=1;rounded=0;entryX=0.269;entryY=-0.005;entryDx=0;entryDy=0;entryPerimeter=0;exitX=0.301;exitY=1.026;exitDx=0;exitDy=0;exitPerimeter=0;" parent="1" target="mqfesZPvg2Y82zENwm4p-3" edge="1" source="mqfesZPvg2Y82zENwm4p-2">
          <mxGeometry width="50" height="50" relative="1" as="geometry">
            <mxPoint x="435" y="322" as="sourcePoint" />
            <mxPoint x="435.4000000000001" y="417.79999999999995" as="targetPoint" />
          </mxGeometry>
        </mxCell>
        <mxCell id="mqfesZPvg2Y82zENwm4p-4" value="" style="endArrow=classic;html=1;rounded=0;entryX=-0.01;entryY=0.574;entryDx=0;entryDy=0;entryPerimeter=0;exitX=0;exitY=0;exitDx=190;exitDy=70;exitPerimeter=0;" edge="1" parent="1" source="mqfesZPvg2Y82zENwm4p-1" target="mqfesZPvg2Y82zENwm4p-2">
          <mxGeometry width="50" height="50" relative="1" as="geometry">
            <mxPoint x="214" y="260" as="sourcePoint" />
            <mxPoint x="430" y="340" as="targetPoint" />
          </mxGeometry>
        </mxCell>
        <mxCell id="mqfesZPvg2Y82zENwm4p-5" value="&amp;lt;&amp;lt;JDBC&amp;gt;&amp;gt;" style="text;html=1;align=center;verticalAlign=middle;whiteSpace=wrap;rounded=0;" vertex="1" parent="1">
          <mxGeometry x="250" y="262.5" width="60" height="30" as="geometry" />
        </mxCell>
        <mxCell id="mqfesZPvg2Y82zENwm4p-6" value="Schedule DB" style="rounded=0;whiteSpace=wrap;html=1;" vertex="1" parent="1">
          <mxGeometry x="80" y="247.5" width="85" height="48.75" as="geometry" />
        </mxCell>
      </root>
    </mxGraphModel>
  </diagram>
</mxfile>
